<svg xmlns="http://www.w3.org/2000/svg" viewBox="0 0 1523 1198">
    <path d="m937.02 0.27c330.55 0 585.72 236.61 585.72 537.54v630.94c0 3.79-0.73 7.45-2.2 10.98c-1.46 3.46-3.53 6.65-6.19 9.31c-2.66 2.66-5.79 4.79-9.25 6.25c-3.46 1.46-7.18 2.26-10.91 2.33h-262.96c-3.79 0-7.52-0.73-10.98-2.2c-3.46-1.46-6.65-3.59-9.31-6.25c-2.66-2.66-4.72-5.85-6.19-9.38c-1.4-3.53-2.13-7.25-2.06-11.04v-586.97c0-130.44-99.65-278.45-265.69-278.45c-174.02 0-265.69 147.94-265.69 278.45v586.83c0 3.79-0.8 7.52-2.26 10.98c-1.46 3.46-3.59 6.65-6.25 9.31c-2.66 2.66-5.85 4.79-9.31 6.25c-3.46 1.46-7.18 2.26-10.98 2.26h-262.83c-2.79 0-5.65-0.4-8.32-1.2c-2.73-0.8-5.26-2-7.58-3.59c-2.33-1.6-4.46-3.46-6.25-5.65c-1.8-2.2-3.26-4.59-4.26-7.25c-0.33-0.86-0.67-1.8-0.93-2.66c-0.27-0.93-0.53-1.8-0.67-2.73c-0.2-0.93-0.33-1.86-0.4-2.79c-0.07-0.93-0.13-1.86-0.13-2.86v-568.08c-0.07-4.12-0.8-8.18-2.13-12.11c-1.4-3.86-3.33-7.52-5.85-10.78c-2.53-3.26-5.59-6.05-9.05-8.31c-3.46-2.26-7.25-3.99-11.18-4.99c-231.16-63.33-316.31-240.13-322.23-493.24c-0.07-2.86 0.33-5.72 1.13-8.45c0.8-2.73 2-5.39 3.59-7.78c1.53-2.39 3.46-4.59 5.65-6.39c2.2-1.86 4.66-3.33 7.25-4.46c0.86-0.4 1.8-0.73 2.66-1c0.93-0.27 1.86-0.53 2.79-0.73c0.93-0.2 1.86-0.33 2.79-0.4c0.93-0.07 1.93-0.13 2.86-0.13h207.35v1.53h62.73c3.66 0 7.32 0.73 10.71 2.13c3.39 1.4 6.52 3.46 9.18 5.99c2.66 2.59 4.79 5.59 6.25 8.98c1.46 3.39 2.33 6.98 2.46 10.64c2.99 103.5 23.62 159.11 72.44 188.65c3.13 1.86 6.65 3.06 10.24 3.59c3.59 0.53 7.25 0.33 10.84-0.53c3.53-0.86 6.85-2.39 9.85-4.52c2.93-2.13 5.45-4.79 7.45-7.92v0.07c102.18-151.4 284.45-250.18 498.05-250.18zm-498.11 250.25l0.07-0.07v0l-0.07 0.07z"/>
</svg>
