<svg
   class="{{ class|default:'size-8' }}"
   width="245.39575"
   height="399.50162"
   viewBox="0 0 64.927624 105.70147"
   version="1.1"
   id="svg1"
   inkscape:version="1.4 (e7c3feb100, 2024-10-09)"
   sodipodi:docname="logo.svg"
   inkscape:export-filename="Projects/terminusgps-site/terminusgps_tracker/templates/terminusgps_tracker/logo.svg"
   inkscape:export-xdpi="96"
   inkscape:export-ydpi="96"
   xmlns:inkscape="http://www.inkscape.org/namespaces/inkscape"
   xmlns:sodipodi="http://sodipodi.sourceforge.net/DTD/sodipodi-0.dtd"
   xmlns="http://www.w3.org/2000/svg"
   xmlns:svg="http://www.w3.org/2000/svg">
  <sodipodi:namedview
     id="namedview1"
     pagecolor="#ffffff"
     bordercolor="#000000"
     borderopacity="0.25"
     inkscape:showpageshadow="2"
     inkscape:pageopacity="0.0"
     inkscape:pagecheckerboard="0"
     inkscape:deskcolor="#d1d1d1"
     inkscape:document-units="mm"
     inkscape:zoom="2.223149"
     inkscape:cx="161.03284"
     inkscape:cy="108.8546"
     inkscape:window-width="1916"
     inkscape:window-height="1052"
     inkscape:window-x="0"
     inkscape:window-y="24"
     inkscape:window-maximized="1"
     inkscape:current-layer="g25" />
  <defs
     id="defs1" />
  <path
     id="path14"
     style="fill:#000000;fill-opacity:1;stroke:none;stroke-width:0;stroke-dasharray:none;stroke-dashoffset:0;stroke-opacity:1"
     inkscape:transform-center-y="8.4010201"
     d="M 32.464185,4.1547361 A 32.46378,32.46378 0 0 0 0,36.618921 32.46378,32.46378 0 0 0 7.2087358,56.91609 L 32.497596,105.70147 57.937181,56.624295 A 32.46378,32.46378 0 0 0 64.927628,36.618921 32.46378,32.46378 0 0 0 32.464185,4.1547361 Z m 0,6.4929839 a 25.971024,25.971024 0 0 1 25.970458,25.971201 25.971024,25.971024 0 0 1 -25.970458,25.9712 25.971024,25.971024 0 0 1 -25.9712,-25.9712 25.971024,25.971024 0 0 1 25.9712,-25.971201 z"
     inkscape:label="waypoint" />
  <g
     id="g25"
     inkscape:label="road"
     transform="matrix(1.4367861,0,0,1.4367861,-40.009266,-6.3268531)">
    <path
       id="path23"
       style="fill:#000000;fill-opacity:1;stroke:none;stroke-width:0;stroke-dasharray:none;stroke-dashoffset:0;stroke-opacity:1"
       inkscape:label="edges"
       inkscape:transform-center-y="-13.00147"
       d="M 49.991216,5.0657744 35.540935,48.206803 H 64.44098 Z"
       inkscape:transform-center-x="-2.3205661e-06" />
    <path
       id="path24"
       style="fill:#ffffff;fill-opacity:1;stroke:none;stroke-width:0;stroke-dasharray:none;stroke-dashoffset:0;stroke-opacity:1"
       inkscape:label="space"
       inkscape:transform-center-y="-29.985339"
       d="m 49.991098,4.403476 -7.83879,39.798523 h 15.677299 z"
       inkscape:transform-center-x="-2.3205661e-06" />
    <path
       id="path25"
       style="fill:#ff0000;fill-opacity:1;stroke:none;stroke-width:0;stroke-dasharray:none;stroke-dashoffset:0;stroke-opacity:1"
       inkscape:label="lines"
       inkscape:transform-center-y="-63.339811"
       d="M 49.990999,7.9014509 47.660245,41.528963 h 4.661425 z"
       inkscape:transform-center-x="-2.3205661e-06" />
  </g>
</svg>
