<?xml version="1.0" encoding="UTF-8" standalone="no"?>
<svg
   width="392.3736"
   zoomAndPan="magnify"
   viewBox="0 0 294.28019 78.505607"
   height="104.67414"
   preserveAspectRatio="xMidYMid"
   version="1.0"
   id="svg36"
   xmlns="http://www.w3.org/2000/svg"
   xmlns:svg="http://www.w3.org/2000/svg">
  <defs
     id="defs1">
    <clipPath
       id="38a74f970a">
      <rect
         x="0"
         width="299"
         y="0"
         height="101"
         id="rect1" />
    </clipPath>
  </defs>
  <g
     transform="translate(-2.9500551,-10.765485)"
     id="g36">
    <g
       clip-path="url(#38a74f970a)"
       id="g35">
      <g
         fill="#ed1d23"
         fill-opacity="1"
         id="g4">
        <g
           transform="translate(0.825057,46.734234)"
           id="g3">
          <g
             id="g2">
            <path
               d="m 19.9375,-5.703125 c -0.136719,0.5625 -0.203125,1.015625 -0.203125,1.359375 0,0.855469 0.394531,1.460938 1.1875,1.8125 0.789063,0.355469 1.960937,0.589844 3.515625,0.703125 L 24.03125,0 H 4.453125 l 0.46875,-1.828125 C 7.335938,-2.003906 8.882812,-2.289062 9.5625,-2.6875 c 0.675781,-0.394531 1.144531,-1.171875 1.40625,-2.328125 l 6.5,-27.96875 H 16.5 c -2.554688,0 -4.210938,0.1875 -4.96875,0.5625 -0.75,0.367187 -1.75,1.21875 -3,2.5625 -1.242188,1.34375 -2.445312,2.949219 -3.609375,4.8125 H 3.03125 L 5.3125,-35.0625 h 33.984375 l -2.3125,10.015625 H 35.0625 c -0.273438,-1.925781 -0.695312,-3.554687 -1.265625,-4.890625 -0.574219,-1.332031 -1.148437,-2.171875 -1.71875,-2.515625 -0.574219,-0.351563 -2.109375,-0.53125 -4.609375,-0.53125 h -1.203125 z m 0,0"
               id="path1" />
          </g>
        </g>
      </g>
      <g
         fill="#ed1d23"
         fill-opacity="1"
         id="g7">
        <g
           transform="translate(34.272096,46.734234)"
           id="g6">
          <g
             id="g5">
            <path
               d="M 35.53125,-26.109375 H 33.640625 C 33.441406,-27.523438 32.9375,-28.867188 32.125,-30.140625 31.3125,-31.421875 30.523438,-32.207031 29.765625,-32.5 29.003906,-32.789062 27.414062,-32.9375 25,-32.9375 H 20.140625 L 17,-19.21875 h 3.328125 c 1.78125,0 3.253906,-0.394531 4.421875,-1.1875 1.164062,-0.800781 2.3125,-2.445312 3.4375,-4.9375 h 1.875 l -3.40625,14.625 h -1.859375 v -0.921875 c 0,-1.707031 -0.296875,-3.039063 -0.890625,-4 -0.585938,-0.96875 -1.921875,-1.453125 -4.015625,-1.453125 H 16.5 l -2.21875,9.703125 C 13.9375,-5.867188 13.765625,-4.90625 13.765625,-4.5 c 0,0.898438 0.253906,1.515625 0.765625,1.859375 0.519531,0.34375 1.898438,0.515625 4.140625,0.515625 2.71875,0 4.710937,-0.148438 5.984375,-0.453125 1.28125,-0.300781 2.847656,-1.625 4.703125,-3.96875 1.851563,-2.351563 2.960937,-3.8125 3.328125,-4.375 h 1.78125 L 31.28125,0 H -1.359375 l 0.390625,-1.828125 c 2.082031,0 3.503906,-0.222656 4.265625,-0.671875 0.769531,-0.457031 1.3125,-1.226562 1.625,-2.3125 l 5.609375,-24.53125 c 0.15625,-0.726562 0.234375,-1.179688 0.234375,-1.359375 0,-1.269531 -1.480469,-2.117187 -4.4375,-2.546875 l 0.390625,-1.8125 h 30.828125 z m 0,0"
               id="path4" />
          </g>
        </g>
      </g>
      <g
         fill="#ed1d23"
         fill-opacity="1"
         id="g10">
        <g
           transform="translate(69.596666,46.734234)"
           id="g9">
          <g
             id="g8">
            <path
               d="m 13.8125,-5.5625 c -0.136719,0.5625 -0.203125,1.015625 -0.203125,1.359375 0,0.699219 0.269531,1.226563 0.8125,1.578125 0.550781,0.355469 1.75,0.621094 3.59375,0.796875 L 17.609375,0 h -18.96875 l 0.390625,-1.828125 c 0.480469,0 1.332031,-0.082031 2.5625,-0.25 C 2.820312,-2.253906 3.632812,-2.59375 4.03125,-3.09375 4.4375,-3.601562 4.734375,-4.175781 4.921875,-4.8125 l 5.609375,-24.53125 c 0.15625,-0.726562 0.234375,-1.179688 0.234375,-1.359375 0,-1.269531 -1.480469,-2.117187 -4.4375,-2.546875 L 6.71875,-35.0625 H 26.0625 c 8.019531,0 12.03125,2.292969 12.03125,6.875 0,5.355469 -3.746094,8.984375 -11.234375,10.890625 l 5.125,9.125 c 1.570313,2.792969 2.632813,4.449219 3.1875,4.96875 0.5625,0.523437 0.976563,0.839844 1.25,0.953125 0.269531,0.105469 1.226563,0.246094 2.875,0.421875 L 38.90625,0 H 26.109375 c -2.40625,-5.5625 -5.105469,-10.859375 -8.09375,-15.890625 h -1.78125 z M 20.140625,-32.9375 16.75,-18.015625 h 2.375 c 2.757812,0 4.984375,-0.875 6.671875,-2.625 1.6875,-1.75 2.53125,-4.09375 2.53125,-7.03125 0,-3.507813 -2.15625,-5.265625 -6.46875,-5.265625 z m 0,0"
               id="path7" />
          </g>
        </g>
      </g>
      <g
         fill="#ed1d23"
         fill-opacity="1"
         id="g13">
        <g
           transform="translate(108.75041,46.734234)"
           id="g12">
          <g
             id="g11">
            <path
               d="m 55.046875,-33.25 c -2.148437,0.210938 -3.585937,0.523438 -4.3125,0.9375 -0.71875,0.417969 -1.203125,1.152344 -1.453125,2.203125 l -5.5,24.546875 C 43.59375,-4.75 43.5,-4.296875 43.5,-4.203125 c 0,0.710937 0.28125,1.242187 0.84375,1.59375 0.5625,0.355469 1.789062,0.617187 3.6875,0.78125 L 47.609375,0 H 28.625 l 0.46875,-1.828125 c 2.425781,-0.21875 3.96875,-0.582031 4.625,-1.09375 C 34.375,-3.429688 34.800781,-4.144531 35,-5.0625 l 5.9375,-26.3125 h -0.25 L 21.671875,-0.5625 H 18.53125 c -0.02344,-0.25 -0.3125,-2.625 -0.875,-7.125 l -3.375,-24.078125 H 14 l -4.890625,21.4375 c -0.4375,1.949219 -0.65625,3.449219 -0.65625,4.5 0,1.28125 0.378906,2.210937 1.140625,2.78125 0.769531,0.5625 2.007812,0.96875 3.71875,1.21875 L 12.84375,0 H -2.171875 l 0.390625,-1.828125 c 2.582031,-0.175781 4.34375,-0.757813 5.28125,-1.75 0.945312,-0.988281 1.820312,-3.15625 2.625,-6.5 l 4,-17.296875 c 0.195312,-0.851562 0.296875,-1.609375 0.296875,-2.265625 0,-2.257813 -1.558594,-3.460937 -4.671875,-3.609375 l 0.421875,-1.8125 h 16.03125 l 3.34375,23.1875 11.484375,-18.828125 c 0.957031,-1.582031 1.664062,-3.035156 2.125,-4.359375 h 16.359375 z m 0,0"
               id="path10" />
          </g>
        </g>
      </g>
      <g
         fill="#ed1d23"
         fill-opacity="1"
         id="g16">
        <g
           transform="translate(159.86106,46.734234)"
           id="g15">
          <g
             id="g14">
            <path
               d="m -1.0625,-1.828125 c 1.75,0 3.097656,-0.179687 4.046875,-0.546875 0.957031,-0.375 1.617187,-1.1875 1.984375,-2.4375 l 5.609375,-24.53125 c 0.164063,-0.726562 0.25,-1.179688 0.25,-1.359375 0,-1.25 -1.554687,-2.097656 -4.65625,-2.546875 l 0.40625,-1.8125 h 19.4375 L 25.59375,-33.25 c -2.585938,0.230469 -4.183594,0.5625 -4.796875,1 -0.605469,0.4375 -1.023437,1.152344 -1.25,2.140625 l -5.6875,24.546875 c -0.136719,0.585938 -0.203125,1.039062 -0.203125,1.359375 0,0.710937 0.300781,1.242187 0.90625,1.59375 0.601562,0.355469 1.867188,0.617187 3.796875,0.78125 L 17.90625,0 H -1.5 Z m 0,0"
               id="path13" />
          </g>
        </g>
      </g>
      <g
         fill="#ed1d23"
         fill-opacity="1"
         id="g19">
        <g
           transform="translate(181.52412,46.734234)"
           id="g18">
          <g
             id="g17">
            <path
               d="M 46.09375,-33.25 45.25,-33.125 c -2.21875,0.292969 -3.761719,0.914062 -4.625,1.859375 -0.867188,0.949219 -1.679688,3.054687 -2.4375,6.3125 l -5.796875,25.15625 h -4.15625 L 13.09375,-27.859375 9.109375,-10.375 c -0.4375,1.960938 -0.65625,3.476562 -0.65625,4.546875 0,1.25 0.316406,2.148437 0.953125,2.6875 0.644531,0.53125 1.945312,0.96875 3.90625,1.3125 L 12.84375,0 H -2.171875 L -1.78125,-1.828125 C 0.789062,-2.054688 2.550781,-2.632812 3.5,-3.5625 4.445312,-4.5 5.320312,-6.671875 6.125,-10.078125 L 9.90625,-26.5625 c 0.21875,-0.9375 0.328125,-1.609375 0.328125,-2.015625 0,-2.539063 -1.640625,-4.097656 -4.921875,-4.671875 L 5.75,-35.0625 h 12.96875 l 13.203125,24.6875 3.28125,-14.296875 c 0.445313,-1.945313 0.671875,-3.441406 0.671875,-4.484375 0,-1.144531 -0.296875,-2.019531 -0.890625,-2.625 -0.585937,-0.601562 -1.898437,-1.09375 -3.9375,-1.46875 l 0.421875,-1.8125 H 46.5 Z m 0,0"
               id="path16" />
          </g>
        </g>
      </g>
      <g
         fill="#ed1d23"
         fill-opacity="1"
         id="g22">
        <g
           transform="translate(222.35776,46.734234)"
           id="g21">
          <g
             id="g20">
            <path
               d="m 9.8125,-29.390625 c 0.175781,-0.789063 0.265625,-1.226563 0.265625,-1.3125 0,-1.269531 -1.492187,-2.117187 -4.46875,-2.546875 l 0.46875,-1.8125 h 18.78125 l -0.46875,1.8125 c -1.835937,0.136719 -3.164063,0.40625 -3.984375,0.8125 -0.824219,0.398438 -1.335938,1.15625 -1.53125,2.28125 l -4.046875,17.265625 c -0.335937,1.398437 -0.5,2.828125 -0.5,4.296875 0,4.148438 2.367187,6.21875 7.109375,6.21875 2.820312,0 5.273438,-0.925781 7.359375,-2.78125 2.09375,-1.863281 3.488281,-4.378906 4.1875,-7.546875 l 2.78125,-12.03125 c 0.445313,-1.90625 0.671875,-3.394531 0.671875,-4.46875 0,-1.34375 -0.414062,-2.28125 -1.234375,-2.8125 -0.824219,-0.539063 -2.054687,-0.953125 -3.6875,-1.234375 l 0.40625,-1.8125 h 15.1875 L 46.6875,-33.25 c -2.75,0.34375 -4.5625,0.96875 -5.4375,1.875 -0.867188,0.90625 -1.695312,3.03125 -2.484375,6.375 l -3.046875,13.21875 c -0.90625,3.917969 -2.886719,7.023438 -5.9375,9.3125 -3.054688,2.292969 -6.757812,3.4375 -11.109375,3.4375 -4.292969,0 -7.585937,-0.828125 -9.875,-2.484375 C 6.503906,-3.171875 5.359375,-5.5 5.359375,-8.5 c 0,-1.101562 0.128906,-2.210938 0.390625,-3.328125 z m 0,0"
               id="path19" />
          </g>
        </g>
      </g>
      <g
         fill="#ed1d23"
         fill-opacity="1"
         id="g25">
        <g
           transform="translate(263.33963,46.734234)"
           id="g24">
          <g
             id="g23">
            <path
               d="M 3.1875,-1.734375 1.0625,0 h -2.125 l 2.625,-12.65625 h 2.140625 c 0.570313,3.3125 1.789063,5.992188 3.65625,8.03125 1.875,2.042969 4.195313,3.0625 6.96875,3.0625 2.351563,0 4.242187,-0.578125 5.671875,-1.734375 1.4375,-1.164063 2.15625,-2.691406 2.15625,-4.578125 0,-2.539062 -1.71875,-4.40625 -5.15625,-5.59375 -4.136719,-1.375 -6.828125,-2.453125 -8.078125,-3.234375 -1.25,-0.789063 -2.25,-1.835937 -3,-3.140625 -0.742187,-1.3125 -1.109375,-2.726562 -1.109375,-4.25 0,-3.257812 1.429688,-6.050781 4.296875,-8.375 2.875,-2.332031 6.515625,-3.5 10.921875,-3.5 3.570312,0 6.859375,0.792969 9.859375,2.375 l 1.828125,-1.46875 h 2.171875 l -2.5625,11.9375 h -2.125 c -1.074219,-6.945312 -4.046875,-10.421875 -8.921875,-10.421875 -2.042969,0 -3.726562,0.570313 -5.046875,1.703125 -1.3125,1.136719 -1.96875,2.542969 -1.96875,4.21875 0,1.210938 0.410156,2.261719 1.234375,3.15625 0.820312,0.898438 1.984375,1.625 3.484375,2.1875 l 6.75,2.5 c 4.113281,1.792969 6.171875,4.492188 6.171875,8.09375 0,3.605469 -1.570312,6.617188 -4.703125,9.03125 -3.125,2.417969 -7.125,3.625 -12,3.625 -4.054687,0 -7.726563,-0.9023438 -11.015625,-2.703125 z m 0,0"
               id="path22" />
          </g>
        </g>
      </g>
      <g
         fill="#000000"
         fill-opacity="1"
         id="g28">
        <g
           transform="translate(0.825057,88.302336)"
           id="g27">
          <g
             id="g26">
            <path
               d="m 34.8125,-6.984375 c -0.417969,1.855469 -0.671875,3.136719 -0.765625,3.84375 -2.011719,1.136719 -4.570313,2.105469 -7.671875,2.90625 C 23.269531,0.566406 20.445312,0.96875 17.90625,0.96875 13.300781,0.96875 9.519531,-0.328125 6.5625,-2.921875 3.601562,-5.515625 2.125,-8.976562 2.125,-13.3125 c 0,-6.507812 2.191406,-11.910156 6.578125,-16.203125 4.394531,-4.300781 9.925781,-6.453125 16.59375,-6.453125 3.9375,0 7.394531,0.757812 10.375,2.265625 L 37.5,-35.0625 h 2.125 l -2.734375,12.796875 h -2.125 c -0.386719,-3.78125 -1.417969,-6.640625 -3.09375,-8.578125 -1.667969,-1.9375 -3.824219,-2.90625 -6.46875,-2.90625 -3.84375,0 -7.039063,2.125 -9.578125,6.375 -2.53125,4.242188 -3.796875,9.355469 -3.796875,15.34375 0,3.367188 0.65625,5.980469 1.96875,7.84375 1.320313,1.855469 3.195313,2.78125 5.625,2.78125 1.925781,0 3.628906,-0.523438 5.109375,-1.578125 l 1.015625,-0.71875 1.578125,-6.71875 c 0.132812,-0.5625 0.203125,-1.03125 0.203125,-1.40625 0,-1.238281 -1.65625,-2.085937 -4.96875,-2.546875 l 0.46875,-1.8125 h 18.96875 l -0.46875,1.8125 c -0.804687,0.0625 -1.851563,0.25 -3.140625,0.5625 -1.28125,0.3125 -2.089844,1.152344 -2.421875,2.515625 z m 0,0"
               id="path25" />
          </g>
        </g>
      </g>
      <g
         fill="#000000"
         fill-opacity="1"
         id="g31">
        <g
           transform="translate(40.497592,88.302336)"
           id="g30">
          <g
             id="g29">
            <path
               d="m 25.6875,-35.0625 c 8.101562,0 12.15625,2.464844 12.15625,7.390625 0,3.886719 -1.683594,6.960937 -5.046875,9.21875 -3.355469,2.261719 -7.757813,3.390625 -13.203125,3.390625 h -3.5625 l -2.21875,9.5 c -0.136719,0.5625 -0.203125,1.015625 -0.203125,1.359375 0,0.699219 0.28125,1.226563 0.84375,1.578125 0.570313,0.355469 1.789063,0.621094 3.65625,0.796875 L 17.71875,0 H -1.359375 l 0.390625,-1.828125 c 0.480469,0 1.332031,-0.082031 2.5625,-0.25 C 2.820312,-2.253906 3.632812,-2.59375 4.03125,-3.09375 4.4375,-3.601562 4.734375,-4.175781 4.921875,-4.8125 l 5.609375,-24.53125 c 0.15625,-0.726562 0.234375,-1.179688 0.234375,-1.359375 0,-1.269531 -1.480469,-2.117187 -4.4375,-2.546875 l 0.390625,-1.8125 z m -5.546875,2.125 -3.59375,15.640625 h 1.609375 c 3.226562,0 5.691406,-0.898437 7.390625,-2.703125 1.695313,-1.800781 2.546875,-4.34375 2.546875,-7.625 0,-3.539062 -2.042969,-5.3125 -6.125,-5.3125 z m 0,0"
               id="path28" />
          </g>
        </g>
      </g>
      <g
         fill="#000000"
         fill-opacity="1"
         id="g34">
        <g
           transform="translate(75.056327,88.302336)"
           id="g33">
          <g
             id="g32">
            <path
               d="M 3.1875,-1.734375 1.0625,0 h -2.125 l 2.625,-12.65625 h 2.140625 c 0.570313,3.3125 1.789063,5.992188 3.65625,8.03125 1.875,2.042969 4.195313,3.0625 6.96875,3.0625 2.351563,0 4.242187,-0.578125 5.671875,-1.734375 1.4375,-1.164063 2.15625,-2.691406 2.15625,-4.578125 0,-2.539062 -1.71875,-4.40625 -5.15625,-5.59375 -4.136719,-1.375 -6.828125,-2.453125 -8.078125,-3.234375 -1.25,-0.789063 -2.25,-1.835937 -3,-3.140625 -0.742187,-1.3125 -1.109375,-2.726562 -1.109375,-4.25 0,-3.257812 1.429688,-6.050781 4.296875,-8.375 2.875,-2.332031 6.515625,-3.5 10.921875,-3.5 3.570312,0 6.859375,0.792969 9.859375,2.375 l 1.828125,-1.46875 h 2.171875 l -2.5625,11.9375 h -2.125 c -1.074219,-6.945312 -4.046875,-10.421875 -8.921875,-10.421875 -2.042969,0 -3.726562,0.570313 -5.046875,1.703125 -1.3125,1.136719 -1.96875,2.542969 -1.96875,4.21875 0,1.210938 0.410156,2.261719 1.234375,3.15625 0.820312,0.898438 1.984375,1.625 3.484375,2.1875 l 6.75,2.5 c 4.113281,1.792969 6.171875,4.492188 6.171875,8.09375 0,3.605469 -1.570312,6.617188 -4.703125,9.03125 -3.125,2.417969 -7.125,3.625 -12,3.625 -4.054687,0 -7.726563,-0.9023438 -11.015625,-2.703125 z m 0,0"
               id="path31" />
          </g>
        </g>
      </g>
    </g>
  </g>
</svg>
