<svg
   width="37.960579mm"
   height="54.224777mm"
   viewBox="0 0 37.960579 54.224777"
   version="1.1"
   id="svg1"
   xmlns="http://www.w3.org/2000/svg"
   xmlns:svg="http://www.w3.org/2000/svg">
  <defs
     id="defs1" />
  <g
     id="layer1"
     transform="translate(-84.240065,-81.932681)">
    <path
       d="m 102.34477,81.965143 a 0.047625,0.04497917 12.7 0 1 0.0529,-0.0318 l 0.008,0.003 a 0.0635,0.0635 0 0 1 0.037,0.0714 l -7.625291,35.512377 a 0.16933333,0.16933333 0 0 0 0.0741,0.17727 c 5.275791,3.37344 11.969751,3.29935 17.152941,-0.30956 a 0.206375,0.206375 0 0 0 0.082,-0.21167 l -7.7761,-35.128727 a 0.06879167,0.06614583 76.8 0 1 0.0476,-0.0794 l 0.003,-0.003 a 0.0635,0.06085417 74.5 0 1 0.0714,0.0423 l 1.44463,3.97404 a 0.365125,0.365125 0 0 0 0.26987,0.23019 q 1.3388,0.28046 2.17223,0.49213 c 3.96875,1.00541 7.60677,3.6195 9.97744,6.75481 3.96875,5.25462 4.91861,11.935347 2.67229,18.195397 q -0.91281,2.54264 -2.07698,4.60639 c -4.43441,7.85283 -9.16252,14.20283 -15.56014,19.83846 a 0.238125,0.24077083 45.8 0 1 -0.3175,-0.003 c -6.469061,-5.82083 -12.057061,-12.3481 -15.925271,-20.03425 -2.27013,-4.51114 -3.64067,-10.10179 -2.45004,-15.10506 q 1.35731,-5.696477 5.12233,-9.411227 4.55348,-4.48998 10.922001,-5.39221 a 0.396875,0.396875 0 0 0 0.32279,-0.26987 z m -13.779501,17.9414 c -1.68539,5.135557 -0.59266,10.636247 2.84957,14.737287 q 0.0741,0.0873 0.17198,0.0265 0.0397,-0.0238 0.0635,-0.10848 0.28045,-0.92075 4.02166,-12.32165 3.74121,-11.400897 4.064,-12.308417 0.0291,-0.082 0.0132,-0.12435 -0.045,-0.10848 -0.1561,-0.082 c -5.20171,1.26471 -9.34244,5.04825 -11.02784,10.18117 z m 23.114001,1.688037 q 0.59003,1.60337 4.27832,11.62579 a 0.06879167,0.06879167 0 0 0 0.12435,0.0159 c 2.71727,-4.1275 3.36815,-9.16516 1.63513,-13.866807 -1.73302,-4.70164 -5.4954,-8.11212 -10.24202,-9.48796 a 0.06879167,0.06879167 0 0 0 -0.0847,0.09 q 3.69623,10.01977 4.28889,11.623147 z"
       id="path22"
       style="stroke-width:0.264583" />
    <path
       fill="#ed1d23"
       d="m 103.12794,91.961103 a 0.0555625,0.0555625 0 0 1 -0.0556,-0.0556 v -0.0556 a 0.1666875,4.6725416 0.7 0 1 0.22489,-4.66989 v 0 a 0.1666875,4.6725416 0.7 0 1 0.10848,4.67518 v 0.0556 a 0.0555625,0.0555625 0 0 1 -0.0556,0.0529 z"
       id="path23"
       style="stroke-width:0.264583" />
    <rect
       fill="#ed1d23"
       x="102.4081"
       y="93.844559"
       transform="rotate(-0.30000028)"
       width="0.70908332"
       height="3.9211249"
       rx="0.15081249"
       id="rect23"
       style="stroke-width:0.264583" />
    <path
       fill="#ed1d23"
       d="m 103.68092,102.29837 -0.8546,-0.0344 a 0.18520833,0.18520833 0 0 1 -0.17727,-0.19314 l 0.12964,-3.159127 a 0.18520833,0.18520833 0 0 1 0.19315,-0.17727 l 0.60325,0.0238 a 0.18520833,0.18520833 0 0 1 0.17727,0.17992 l 0.12171,3.167057 a 0.18520833,0.18520833 0 0 1 -0.19315,0.19315 z"
       id="path24"
       style="stroke-width:0.264583" />
    <path
       fill="#ed1d23"
       d="m 103.98255,108.9791 -1.42346,0.0529 a 0.17727083,0.17727083 0 0 1 -0.18257,-0.18256 l 0.1958,-4.83394 a 0.17727083,0.17727083 0 0 1 0.17198,-0.16933 l 1.03981,-0.0397 a 0.17727083,0.17727083 0 0 1 0.18521,0.16934 l 0.18256,4.81806 a 0.17727083,0.17727083 0 0 1 -0.16933,0.18521 z"
       id="path32"
       style="stroke-width:0.264583" />
    <path
       fill="#ed1d23"
       d="m 104.23125,116.80283 h -1.95527 a 0.22225,0.22225 0 0 1 -0.22225,-0.23019 l 0.23813,-5.82877 a 0.22225,0.22225 0 0 1 0.22225,-0.21431 h 1.49225 a 0.22225,0.22225 0 0 1 0.22225,0.21431 l 0.22489,5.82877 a 0.22225,0.22225 0 0 1 -0.22225,0.23019 z"
       id="path33"
       style="stroke-width:0.264583" />
  </g>
</svg>
