<?xml version="1.0" encoding="UTF-8" standalone="no"?>
<!DOCTYPE svg PUBLIC "-//W3C//DTD SVG 1.1//EN" "http://www.w3.org/Graphics/SVG/1.1/DTD/svg11.dtd">
<svg xmlns="http://www.w3.org/2000/svg" version="1.1" viewBox="0.00 0.00 595.00 309.00">
<g stroke-width="2.00" fill="none" stroke-linecap="butt">
<path stroke="#918f8f" vector-effect="non-scaling-stroke" d="
  M 117.54 44.88
  L 112.63 59.69
  A 1.50 1.50 0.0 0 1 111.41 60.71
  Q 87.34 64.12 70.13 81.09
  Q 55.90 95.13 50.77 116.66
  C 46.27 135.57 51.45 156.70 60.03 173.75
  C 74.65 202.80 95.77 227.47 120.22 249.47
  A 0.91 0.90 -44.2 0 0 121.42 249.48
  C 145.60 228.18 163.47 204.18 180.23 174.50
  Q 184.63 166.70 188.08 157.09
  C 196.57 133.43 192.98 108.18 177.98 88.32
  C 169.02 76.47 155.27 66.59 140.27 62.79
  Q 137.12 61.99 132.06 60.93
  A 1.38 1.38 0.0 0 1 131.04 60.06
  L 125.58 45.04
  A 0.24 0.23 74.5 0 0 125.31 44.88
  L 125.30 44.89
  A 0.26 0.25 76.8 0 0 125.12 45.19
  L 154.51 177.96
  A 0.78 0.78 0.0 0 1 154.20 178.76
  C 134.61 192.40 109.31 192.68 89.37 179.93
  A 0.64 0.64 0.0 0 1 89.09 179.26
  L 117.91 45.04
  A 0.24 0.24 0.0 0 0 117.77 44.77
  L 117.74 44.76
  A 0.18 0.17 12.7 0 0 117.54 44.88"
/>
<path stroke="#f68e91" vector-effect="non-scaling-stroke" d="
  M 120.50 82.66
  L 121.34 82.67
  A 0.21 0.21 0.0 0 0 121.55 82.47
  L 121.55 82.26
  A 17.66 0.63 -89.3 0 0 121.14 64.59
  L 121.14 64.59
  A 17.66 0.63 -89.3 0 0 120.29 82.24
  L 120.29 82.45
  A 0.21 0.21 0.0 0 0 120.50 82.66"
/>
<path stroke="#f68e91" vector-effect="non-scaling-stroke" d="
  M 122.3142 88.3031
  A 0.57 0.57 0.0 0 0 121.7412 87.7361
  L 120.2012 87.7441
  A 0.57 0.57 0.0 0 0 119.6342 88.3171
  L 119.7058 101.9969
  A 0.57 0.57 0.0 0 0 120.2788 102.5639
  L 121.8188 102.5559
  A 0.57 0.57 0.0 0 0 122.3858 101.9829
  L 122.3142 88.3031"
/>
<path stroke="#f68e91" vector-effect="non-scaling-stroke" d="
  M 122.59 121.73
  A 0.70 0.70 0.0 0 0 123.32 121.00
  L 122.86 109.03
  A 0.70 0.70 0.0 0 0 122.19 108.35
  L 119.91 108.26
  A 0.70 0.70 0.0 0 0 119.18 108.93
  L 118.69 120.87
  A 0.70 0.70 0.0 0 0 119.36 121.60
  L 122.59 121.73"
/>
<path stroke="#f68e91" vector-effect="non-scaling-stroke" d="
  M 540.34 112.83
  Q 534.74 111.30 530.25 110.78
  C 522.06 109.82 511.17 112.49 508.89 121.25
  C 505.94 132.56 515.79 135.35 523.60 139.24
  C 528.06 141.45 530.18 145.98 526.36 150.01
  C 521.74 154.89 513.97 153.01 508.98 149.68
  C 507.09 148.41 506.86 145.04 506.29 142.53
  A 1.73 1.65 -19.2 0 0 503.89 141.44
  Q 503.65 141.55 503.54 142.01
  Q 503.12 143.86 501.62 153.74
  A 0.71 0.70 -77.1 0 0 502.10 154.52
  C 510.83 157.30 520.28 158.58 529.09 154.77
  Q 539.90 150.09 537.09 138.87
  C 535.81 133.71 527.79 130.68 522.15 128.10
  C 516.72 125.62 516.11 120.12 520.59 116.34
  C 523.92 113.54 529.37 114.91 532.93 116.85
  A 3.85 3.84 9.2 0 1 534.86 119.51
  Q 535.41 122.55 535.87 123.82
  Q 536.39 125.31 537.88 124.82
  A 0.87 0.85 87.7 0 0 538.45 124.19
  L 540.74 113.49
  A 0.56 0.55 14.0 0 0 540.34 112.83"
/>
<path stroke="#f68e91" vector-effect="non-scaling-stroke" d="
  M 342.58 120.31
  Q 342.76 120.45 342.80 120.74
  Q 347.81 154.63 347.95 155.52
  A 0.96 0.95 5.3 0 0 348.58 156.27
  C 350.14 156.82 351.45 156.03 352.43 154.60
  Q 354.30 151.90 356.23 148.72
  Q 363.87 136.07 372.92 120.75
  A 0.20 0.19 -23.5 0 1 373.28 120.89
  L 366.56 150.78
  A 1.84 1.80 72.2 0 1 366.17 151.56
  Q 364.73 153.28 362.00 153.44
  A 1.83 1.83 0.0 0 0 360.31 154.89
  L 360.20 155.41
  A 0.73 0.73 0.0 0 0 360.91 156.29
  L 379.89 156.29
  A 0.95 0.95 0.0 0 0 380.84 155.34
  L 380.84 154.53
  A 1.03 1.02 -84.2 0 0 380.03 153.52
  L 377.18 152.90
  A 1.46 1.46 0.0 0 1 376.05 151.16
  L 383.32 117.30
  A 2.98 2.96 86.2 0 1 385.20 115.14
  L 389.04 113.74
  A 1.17 1.16 35.0 0 0 388.64 111.48
  L 374.46 111.48
  A 1.71 1.69 15.0 0 0 372.99 112.32
  L 355.69 142.29
  A 0.32 0.32 0.0 0 1 355.09 142.18
  L 350.62 111.89
  A 0.49 0.48 85.9 0 0 350.14 111.47
  L 334.89 111.47
  A 1.35 1.34 -38.9 0 0 334.60 114.13
  L 337.32 114.71
  A 1.77 1.77 0.0 0 1 338.68 116.81
  L 331.53 150.09
  A 3.51 3.50 85.6 0 1 329.37 152.62
  Q 322.53 155.25 319.43 149.06
  Q 316.54 143.28 312.29 135.81
  A 0.77 0.77 0.0 0 1 312.82 134.68
  C 319.76 133.36 325.29 127.51 324.24 120.12
  C 323.31 113.52 316.78 111.76 310.99 111.59
  Q 304.20 111.38 290.58 111.53
  A 1.30 1.30 0.0 0 0 290.32 114.11
  L 293.06 114.70
  A 1.83 1.83 0.0 0 1 294.47 116.88
  L 287.27 150.40
  A 2.89 2.89 0.0 0 1 285.43 152.52
  L 281.63 153.90
  A 1.39 1.38 -1.0 0 0 280.78 154.77
  L 280.68 155.08
  A 0.91 0.91 0.0 0 0 281.54 156.28
  L 300.66 156.28
  A 1.03 1.03 0.0 0 0 301.69 155.25
  L 301.69 154.72
  A 1.14 1.13 -87.2 0 0 300.67 153.59
  Q 299.03 153.44 297.05 152.45
  A 1.21 1.21 0.0 0 1 296.41 151.12
  L 299.41 137.16
  A 0.66 0.66 0.0 0 1 300.09 136.64
  Q 302.74 136.79 303.44 138.14
  Q 308.77 148.42 311.32 153.51
  C 312.31 155.47 313.81 156.12 315.86 156.18
  Q 324.47 156.46 339.55 156.25
  A 1.42 1.42 0.0 0 0 339.83 153.45
  L 337.01 152.84
  A 1.63 1.62 -77.9 0 1 335.77 150.91
  L 342.32 120.40
  A 0.17 0.16 24.8 0 1 342.58 120.31"
/>
<path stroke="#f68e91" vector-effect="non-scaling-stroke" d="
  M 221.82 115.35
  A 0.56 0.56 0.0 0 1 222.37 116.02
  L 214.95 150.58
  A 3.06 3.05 -0.3 0 1 212.63 152.92
  L 208.94 153.73
  A 1.15 1.13 -78.8 0 0 208.27 154.19
  Q 207.74 154.98 207.73 155.58
  A 0.69 0.69 0.0 0 0 208.42 156.28
  L 228.75 156.28
  A 1.03 1.03 0.0 0 0 229.78 155.25
  L 229.78 154.68
  A 1.14 1.14 0.0 0 0 228.73 153.54
  Q 226.73 153.40 224.97 152.61
  A 1.33 1.33 0.0 0 1 224.21 151.12
  L 231.70 116.26
  A 1.14 1.14 0.0 0 1 232.82 115.35
  L 240.49 115.35
  A 1.06 1.06 0.0 0 1 241.54 116.27
  Q 242.17 121.17 242.56 122.69
  Q 242.80 123.59 243.61 123.80
  A 1.40 1.32 -75.6 0 0 245.23 122.78
  Q 245.74 120.82 247.59 112.53
  A 0.87 0.86 6.1 0 0 246.74 111.48
  L 208.58 111.48
  A 0.78 0.76 -83.9 0 0 207.83 112.10
  L 205.58 122.54
  A 1.00 1.00 0.0 0 0 206.79 123.72
  Q 207.93 123.45 208.40 122.64
  Q 210.76 118.62 212.05 116.56
  A 2.59 2.58 16.1 0 1 214.24 115.35
  L 221.82 115.35"
/>
<path stroke="#f68e91" vector-effect="non-scaling-stroke" d="
  M 260.65 130.29
  L 263.70 116.05
  A 0.90 0.89 -83.5 0 1 264.57 115.35
  L 277.49 115.35
  A 1.50 1.49 -4.2 0 1 278.97 116.62
  L 279.79 122.21
  A 1.56 1.56 0.0 0 0 282.86 122.31
  L 285.04 112.15
  A 0.60 0.59 -84.1 0 0 284.46 111.43
  Q 269.68 111.56 251.25 111.46
  Q 249.81 111.45 249.29 111.93
  A 1.44 1.25 32.1 0 0 249.96 114.12
  Q 250.31 114.25 252.83 114.83
  A 1.81 1.81 0.0 0 1 254.19 116.96
  Q 253.62 119.71 247.13 148.69
  C 246.27 152.56 245.31 152.91 241.41 153.64
  A 1.33 1.32 84.8 0 0 240.33 154.95
  L 240.33 155.40
  A 0.88 0.87 90.0 0 0 241.20 156.28
  L 277.47 156.28
  A 1.35 1.35 0.0 0 0 278.79 155.21
  L 281.03 144.76
  A 1.28 1.28 0.0 0 0 278.67 143.85
  L 274.30 151.42
  A 2.13 2.11 14.9 0 1 272.46 152.48
  L 256.52 152.48
  A 0.60 0.60 0.0 0 1 255.93 151.75
  L 259.45 135.33
  A 0.73 0.72 5.9 0 1 260.16 134.76
  L 268.31 134.76
  A 1.12 1.12 0.0 0 1 269.40 135.64
  L 270.44 140.32
  A 1.37 1.37 0.0 0 0 273.10 140.37
  C 273.82 137.62 274.77 132.83 276.29 125.87
  A 1.28 1.28 0.0 0 0 273.93 124.95
  L 271.16 129.75
  A 2.36 2.35 -75.0 0 1 269.12 130.93
  L 261.16 130.93
  A 0.53 0.52 -83.8 0 1 260.65 130.29"
/>
<path stroke="#f68e91" vector-effect="non-scaling-stroke" d="
  M 393.74 133.01
  Q 392.76 137.39 390.54 147.80
  C 389.45 152.89 388.70 152.39 384.28 153.95
  A 1.20 1.20 0.0 0 0 384.68 156.29
  L 403.18 156.29
  A 1.08 1.07 -0.0 0 0 404.26 155.22
  L 404.26 154.79
  A 1.20 1.19 6.8 0 0 403.34 153.63
  L 400.56 152.96
  A 1.84 1.84 0.0 0 1 399.19 150.81
  Q 399.24 150.55 402.78 134.76
  Q 403.77 130.38 405.99 119.97
  C 407.08 114.88 407.83 115.38 412.25 113.82
  A 1.20 1.20 0.0 0 0 411.85 111.48
  L 393.35 111.48
  A 1.08 1.07 -0.0 0 0 392.27 112.55
  L 392.27 112.98
  A 1.20 1.19 6.8 0 0 393.19 114.14
  L 395.97 114.81
  A 1.84 1.84 0.0 0 1 397.33 116.96
  Q 397.29 117.22 393.74 133.01"
/>
<path stroke="#f68e91" vector-effect="non-scaling-stroke" d="
  M 423.68 122.30
  A 0.26 0.26 0.0 0 1 424.17 122.25
  L 439.77 155.16
  A 2.78 2.77 77.4 0 0 442.26 156.75
  Q 445.37 156.77 445.80 154.73
  C 446.29 152.39 447.83 148.56 448.49 145.59
  Q 451.08 133.93 454.64 117.66
  A 3.09 3.05 -6.8 0 1 456.32 115.55
  L 460.22 113.71
  A 1.17 1.17 0.0 0 0 459.71 111.48
  L 445.59 111.48
  A 0.88 0.88 0.0 0 0 444.72 112.23
  C 444.40 114.54 447.33 114.52 448.95 115.18
  A 1.67 1.67 0.0 0 1 449.95 117.07
  L 444.52 142.36
  A 0.38 0.38 0.0 0 1 443.80 142.44
  L 429.53 112.32
  A 1.48 1.48 0.0 0 0 428.19 111.47
  L 416.06 111.47
  A 1.16 1.16 0.0 0 0 414.90 112.58
  Q 414.86 113.35 415.05 113.69
  Q 415.27 114.11 416.04 114.26
  Q 417.63 114.57 419.21 115.15
  A 1.58 1.58 0.0 0 1 420.22 116.97
  Q 420.10 117.51 413.16 148.68
  Q 412.60 151.19 411.92 151.87
  A 3.23 2.90 -77.8 0 1 411.12 152.45
  Q 409.69 153.18 407.97 153.45
  A 1.73 1.73 0.0 0 0 406.54 154.80
  L 406.45 155.23
  A 0.87 0.87 0.0 0 0 407.30 156.29
  L 421.31 156.29
  A 1.36 1.36 0.0 0 0 421.74 153.64
  L 418.54 152.58
  A 1.49 1.49 0.0 0 1 417.55 150.85
  L 423.68 122.30"
/>
<path stroke="#f68e91" vector-effect="non-scaling-stroke" d="
  M 506.47 111.47
  L 492.70 111.47
  A 1.37 1.37 0.0 0 0 492.27 114.14
  L 495.34 115.16
  A 1.69 1.68 15.5 0 1 496.46 117.13
  Q 491.07 141.15 490.93 141.70
  C 489.30 147.95 485.23 152.69 478.29 152.39
  C 472.87 152.16 469.73 148.79 470.70 143.46
  Q 472.19 135.34 476.43 116.97
  A 2.56 2.56 0.0 0 1 478.03 115.15
  L 481.96 113.73
  A 1.16 1.16 0.0 0 0 481.56 111.48
  L 463.21 111.48
  A 1.36 1.35 51.0 0 0 462.93 114.16
  L 465.67 114.75
  A 1.69 1.68 11.8 0 1 466.97 116.73
  Q 466.00 121.69 461.40 142.40
  C 458.53 155.31 472.13 158.99 481.73 156.42
  Q 492.61 153.51 495.49 142.19
  Q 497.87 132.85 501.03 117.45
  A 2.97 2.95 86.1 0 1 502.92 115.27
  L 506.89 113.82
  A 1.21 1.21 0.0 0 0 506.47 111.47"
/>
<path stroke="#f68e91" vector-effect="non-scaling-stroke" d="
  M 123.73 146.98
  A 0.67 0.67 0.0 0 0 124.37 146.28
  L 123.68 128.07
  A 0.67 0.67 0.0 0 0 122.98 127.43
  L 119.05 127.58
  A 0.67 0.67 0.0 0 0 118.40 128.22
  L 117.66 146.49
  A 0.67 0.67 0.0 0 0 118.35 147.18
  L 123.73 146.98"
/>
<path stroke="#f68e91" vector-effect="non-scaling-stroke" d="
  M 124.67 176.55
  A 0.84 0.84 0.0 0 0 125.51 175.68
  L 124.66 153.65
  A 0.84 0.84 0.0 0 0 123.82 152.84
  L 118.18 152.84
  A 0.84 0.84 0.0 0 0 117.34 153.65
  L 116.44 175.68
  A 0.84 0.84 0.0 0 0 117.28 176.55
  L 124.67 176.55"
/>
<path stroke="#918f8f" vector-effect="non-scaling-stroke" d="
  M 247.66 195.90
  Q 234.31 195.66 228.26 195.95
  Q 227.32 195.99 227.00 196.80
  A 1.14 1.07 18.5 0 0 227.79 198.26
  Q 231.18 199.20 231.77 199.46
  A 1.36 1.36 0.0 0 1 232.56 200.99
  L 230.73 209.55
  A 3.27 3.27 0.0 0 1 228.82 211.88
  C 220.18 215.54 215.01 209.29 214.16 201.29
  Q 213.12 191.59 217.45 183.04
  C 222.39 173.31 230.54 173.21 239.72 177.00
  A 1.48 1.48 0.0 0 1 240.61 178.05
  L 241.69 182.94
  A 1.48 1.48 0.0 0 0 244.58 182.93
  L 246.60 173.52
  A 0.78 0.78 0.0 0 0 246.04 172.61
  C 237.17 170.30 227.03 168.97 219.03 172.87
  Q 208.35 178.08 204.91 190.46
  C 203.21 196.58 203.18 204.94 207.17 210.25
  C 214.55 220.07 227.76 217.25 238.34 214.09
  A 1.30 1.29 -2.4 0 0 239.24 213.12
  L 241.70 201.64
  A 3.05 3.03 86.3 0 1 243.63 199.43
  L 247.98 197.84
  A 1.00 1.00 0.0 0 0 247.66 195.90"
/>
<path stroke="#918f8f" vector-effect="non-scaling-stroke" d="
  M 324.57 172.68
  Q 318.97 171.15 314.48 170.62
  C 306.30 169.66 295.41 172.33 293.12 181.09
  C 290.17 192.39 300.02 195.19 307.83 199.08
  C 312.28 201.29 314.40 205.82 310.58 209.85
  C 305.96 214.73 298.19 212.85 293.20 209.51
  C 291.31 208.24 291.08 204.87 290.52 202.36
  A 1.73 1.65 -19.2 0 0 288.12 201.27
  Q 287.88 201.38 287.77 201.84
  Q 287.35 203.69 285.84 213.57
  A 0.71 0.70 -77.0 0 0 286.32 214.35
  C 295.05 217.14 304.50 218.42 313.31 214.61
  Q 324.12 209.94 321.32 198.71
  C 320.04 193.55 312.02 190.52 306.38 187.94
  C 300.95 185.46 300.34 179.96 304.82 176.18
  C 308.15 173.38 313.60 174.75 317.16 176.69
  A 3.85 3.84 9.3 0 1 319.09 179.36
  Q 319.64 182.40 320.10 183.67
  Q 320.62 185.16 322.11 184.67
  A 0.87 0.85 87.7 0 0 322.68 184.04
  L 324.97 173.34
  A 0.56 0.55 14.0 0 0 324.57 172.68"
/>
<path stroke="#918f8f" vector-effect="non-scaling-stroke" d="
  M 265.00 196.62
  Q 273.61 200.38 281.27 195.58
  C 290.42 189.84 292.23 174.43 279.17 172.00
  Q 276.35 171.47 275.25 171.45
  Q 266.29 171.31 255.20 171.42
  A 1.25 1.19 -5.8 0 0 253.97 172.86
  Q 254.11 173.51 255.16 173.84
  Q 256.87 174.37 257.91 174.69
  A 1.75 1.74 -75.4 0 1 259.10 176.72
  L 251.93 210.12
  A 3.42 3.41 86.0 0 1 249.79 212.59
  C 248.15 213.19 244.96 213.17 245.41 215.61
  A 0.69 0.68 84.3 0 0 246.08 216.17
  Q 255.38 216.17 265.26 216.18
  Q 266.52 216.18 266.80 214.77
  A 0.83 0.82 14.8 0 0 266.25 213.83
  L 261.57 212.28
  A 0.90 0.89 -74.9 0 1 260.98 211.24
  L 264.01 197.13
  A 0.72 0.71 -72.2 0 1 265.00 196.62"
/>
<path stroke="#918f8f" vector-effect="non-scaling-stroke" d="
  M 65.46 112.69
  C 59.09 132.10 63.22 152.89 76.23 168.39
  Q 76.51 168.72 76.88 168.49
  Q 77.03 168.40 77.12 168.08
  Q 78.18 164.60 92.32 121.51
  Q 106.46 78.42 107.68 74.99
  Q 107.79 74.68 107.73 74.52
  Q 107.56 74.11 107.14 74.21
  C 87.48 78.99 71.83 93.29 65.46 112.69"
/>
<path stroke="#918f8f" vector-effect="non-scaling-stroke" d="
  M 152.82 119.07
  Q 155.05 125.13 168.99 163.01
  A 0.26 0.26 0.0 0 0 169.46 163.07
  C 179.73 147.47 182.19 128.43 175.64 110.66
  C 169.09 92.89 154.87 80.00 136.93 74.80
  A 0.26 0.26 0.0 0 0 136.61 75.14
  Q 150.58 113.01 152.82 119.07"
/>
<path stroke="#f68e91" vector-effect="non-scaling-stroke" d="
  M 300.99 133.17
  C 305.86 133.81 310.79 132.27 313.01 127.81
  C 314.59 124.63 314.97 118.84 311.46 116.76
  Q 308.68 115.11 304.82 115.38
  A 0.81 0.79 -85.5 0 0 304.10 116.01
  L 300.55 132.55
  A 0.52 0.51 9.7 0 0 300.99 133.17"
/>
<path stroke="#918f8f" vector-effect="non-scaling-stroke" d="
  M 269.16 174.69
  L 264.92 193.07
  A 0.29 0.29 0.0 0 0 265.14 193.42
  L 267.46 193.95
  A 8.72 8.35 -77.0 0 0 277.55 187.33
  L 278.00 185.39
  A 8.72 8.35 -77.0 0 0 271.83 175.01
  L 269.51 174.47
  A 0.29 0.29 0.0 0 0 269.16 174.69"
/>
</g>
<path fill="#ffffff" d="
  M 595.00 0.00
  L 595.00 309.00
  L 0.00 309.00
  L 0.00 0.00
  L 595.00 0.00
  Z
  M 117.54 44.88
  L 112.63 59.69
  A 1.50 1.50 0.0 0 1 111.41 60.71
  Q 87.34 64.12 70.13 81.09
  Q 55.90 95.13 50.77 116.66
  C 46.27 135.57 51.45 156.70 60.03 173.75
  C 74.65 202.80 95.77 227.47 120.22 249.47
  A 0.91 0.90 -44.2 0 0 121.42 249.48
  C 145.60 228.18 163.47 204.18 180.23 174.50
  Q 184.63 166.70 188.08 157.09
  C 196.57 133.43 192.98 108.18 177.98 88.32
  C 169.02 76.47 155.27 66.59 140.27 62.79
  Q 137.12 61.99 132.06 60.93
  A 1.38 1.38 0.0 0 1 131.04 60.06
  L 125.58 45.04
  A 0.24 0.23 74.5 0 0 125.31 44.88
  L 125.30 44.89
  A 0.26 0.25 76.8 0 0 125.12 45.19
  L 154.51 177.96
  A 0.78 0.78 0.0 0 1 154.20 178.76
  C 134.61 192.40 109.31 192.68 89.37 179.93
  A 0.64 0.64 0.0 0 1 89.09 179.26
  L 117.91 45.04
  A 0.24 0.24 0.0 0 0 117.77 44.77
  L 117.74 44.76
  A 0.18 0.17 12.7 0 0 117.54 44.88
  Z
  M 120.50 82.66
  L 121.34 82.67
  A 0.21 0.21 0.0 0 0 121.55 82.47
  L 121.55 82.26
  A 17.66 0.63 -89.3 0 0 121.14 64.59
  L 121.14 64.59
  A 17.66 0.63 -89.3 0 0 120.29 82.24
  L 120.29 82.45
  A 0.21 0.21 0.0 0 0 120.50 82.66
  Z
  M 122.3142 88.3031
  A 0.57 0.57 0.0 0 0 121.7412 87.7361
  L 120.2012 87.7441
  A 0.57 0.57 0.0 0 0 119.6342 88.3171
  L 119.7058 101.9969
  A 0.57 0.57 0.0 0 0 120.2788 102.5639
  L 121.8188 102.5559
  A 0.57 0.57 0.0 0 0 122.3858 101.9829
  L 122.3142 88.3031
  Z
  M 122.59 121.73
  A 0.70 0.70 0.0 0 0 123.32 121.00
  L 122.86 109.03
  A 0.70 0.70 0.0 0 0 122.19 108.35
  L 119.91 108.26
  A 0.70 0.70 0.0 0 0 119.18 108.93
  L 118.69 120.87
  A 0.70 0.70 0.0 0 0 119.36 121.60
  L 122.59 121.73
  Z
  M 540.34 112.83
  Q 534.74 111.30 530.25 110.78
  C 522.06 109.82 511.17 112.49 508.89 121.25
  C 505.94 132.56 515.79 135.35 523.60 139.24
  C 528.06 141.45 530.18 145.98 526.36 150.01
  C 521.74 154.89 513.97 153.01 508.98 149.68
  C 507.09 148.41 506.86 145.04 506.29 142.53
  A 1.73 1.65 -19.2 0 0 503.89 141.44
  Q 503.65 141.55 503.54 142.01
  Q 503.12 143.86 501.62 153.74
  A 0.71 0.70 -77.1 0 0 502.10 154.52
  C 510.83 157.30 520.28 158.58 529.09 154.77
  Q 539.90 150.09 537.09 138.87
  C 535.81 133.71 527.79 130.68 522.15 128.10
  C 516.72 125.62 516.11 120.12 520.59 116.34
  C 523.92 113.54 529.37 114.91 532.93 116.85
  A 3.85 3.84 9.2 0 1 534.86 119.51
  Q 535.41 122.55 535.87 123.82
  Q 536.39 125.31 537.88 124.82
  A 0.87 0.85 87.7 0 0 538.45 124.19
  L 540.74 113.49
  A 0.56 0.55 14.0 0 0 540.34 112.83
  Z
  M 342.58 120.31
  Q 342.76 120.45 342.80 120.74
  Q 347.81 154.63 347.95 155.52
  A 0.96 0.95 5.3 0 0 348.58 156.27
  C 350.14 156.82 351.45 156.03 352.43 154.60
  Q 354.30 151.90 356.23 148.72
  Q 363.87 136.07 372.92 120.75
  A 0.20 0.19 -23.5 0 1 373.28 120.89
  L 366.56 150.78
  A 1.84 1.80 72.2 0 1 366.17 151.56
  Q 364.73 153.28 362.00 153.44
  A 1.83 1.83 0.0 0 0 360.31 154.89
  L 360.20 155.41
  A 0.73 0.73 0.0 0 0 360.91 156.29
  L 379.89 156.29
  A 0.95 0.95 0.0 0 0 380.84 155.34
  L 380.84 154.53
  A 1.03 1.02 -84.2 0 0 380.03 153.52
  L 377.18 152.90
  A 1.46 1.46 0.0 0 1 376.05 151.16
  L 383.32 117.30
  A 2.98 2.96 86.2 0 1 385.20 115.14
  L 389.04 113.74
  A 1.17 1.16 35.0 0 0 388.64 111.48
  L 374.46 111.48
  A 1.71 1.69 15.0 0 0 372.99 112.32
  L 355.69 142.29
  A 0.32 0.32 0.0 0 1 355.09 142.18
  L 350.62 111.89
  A 0.49 0.48 85.9 0 0 350.14 111.47
  L 334.89 111.47
  A 1.35 1.34 -38.9 0 0 334.60 114.13
  L 337.32 114.71
  A 1.77 1.77 0.0 0 1 338.68 116.81
  L 331.53 150.09
  A 3.51 3.50 85.6 0 1 329.37 152.62
  Q 322.53 155.25 319.43 149.06
  Q 316.54 143.28 312.29 135.81
  A 0.77 0.77 0.0 0 1 312.82 134.68
  C 319.76 133.36 325.29 127.51 324.24 120.12
  C 323.31 113.52 316.78 111.76 310.99 111.59
  Q 304.20 111.38 290.58 111.53
  A 1.30 1.30 0.0 0 0 290.32 114.11
  L 293.06 114.70
  A 1.83 1.83 0.0 0 1 294.47 116.88
  L 287.27 150.40
  A 2.89 2.89 0.0 0 1 285.43 152.52
  L 281.63 153.90
  A 1.39 1.38 -1.0 0 0 280.78 154.77
  L 280.68 155.08
  A 0.91 0.91 0.0 0 0 281.54 156.28
  L 300.66 156.28
  A 1.03 1.03 0.0 0 0 301.69 155.25
  L 301.69 154.72
  A 1.14 1.13 -87.2 0 0 300.67 153.59
  Q 299.03 153.44 297.05 152.45
  A 1.21 1.21 0.0 0 1 296.41 151.12
  L 299.41 137.16
  A 0.66 0.66 0.0 0 1 300.09 136.64
  Q 302.74 136.79 303.44 138.14
  Q 308.77 148.42 311.32 153.51
  C 312.31 155.47 313.81 156.12 315.86 156.18
  Q 324.47 156.46 339.55 156.25
  A 1.42 1.42 0.0 0 0 339.83 153.45
  L 337.01 152.84
  A 1.63 1.62 -77.9 0 1 335.77 150.91
  L 342.32 120.40
  A 0.17 0.16 24.8 0 1 342.58 120.31
  Z
  M 221.82 115.35
  A 0.56 0.56 0.0 0 1 222.37 116.02
  L 214.95 150.58
  A 3.06 3.05 -0.3 0 1 212.63 152.92
  L 208.94 153.73
  A 1.15 1.13 -78.8 0 0 208.27 154.19
  Q 207.74 154.98 207.73 155.58
  A 0.69 0.69 0.0 0 0 208.42 156.28
  L 228.75 156.28
  A 1.03 1.03 0.0 0 0 229.78 155.25
  L 229.78 154.68
  A 1.14 1.14 0.0 0 0 228.73 153.54
  Q 226.73 153.40 224.97 152.61
  A 1.33 1.33 0.0 0 1 224.21 151.12
  L 231.70 116.26
  A 1.14 1.14 0.0 0 1 232.82 115.35
  L 240.49 115.35
  A 1.06 1.06 0.0 0 1 241.54 116.27
  Q 242.17 121.17 242.56 122.69
  Q 242.80 123.59 243.61 123.80
  A 1.40 1.32 -75.6 0 0 245.23 122.78
  Q 245.74 120.82 247.59 112.53
  A 0.87 0.86 6.1 0 0 246.74 111.48
  L 208.58 111.48
  A 0.78 0.76 -83.9 0 0 207.83 112.10
  L 205.58 122.54
  A 1.00 1.00 0.0 0 0 206.79 123.72
  Q 207.93 123.45 208.40 122.64
  Q 210.76 118.62 212.05 116.56
  A 2.59 2.58 16.1 0 1 214.24 115.35
  L 221.82 115.35
  Z
  M 260.65 130.29
  L 263.70 116.05
  A 0.90 0.89 -83.5 0 1 264.57 115.35
  L 277.49 115.35
  A 1.50 1.49 -4.2 0 1 278.97 116.62
  L 279.79 122.21
  A 1.56 1.56 0.0 0 0 282.86 122.31
  L 285.04 112.15
  A 0.60 0.59 -84.1 0 0 284.46 111.43
  Q 269.68 111.56 251.25 111.46
  Q 249.81 111.45 249.29 111.93
  A 1.44 1.25 32.1 0 0 249.96 114.12
  Q 250.31 114.25 252.83 114.83
  A 1.81 1.81 0.0 0 1 254.19 116.96
  Q 253.62 119.71 247.13 148.69
  C 246.27 152.56 245.31 152.91 241.41 153.64
  A 1.33 1.32 84.8 0 0 240.33 154.95
  L 240.33 155.40
  A 0.88 0.87 90.0 0 0 241.20 156.28
  L 277.47 156.28
  A 1.35 1.35 0.0 0 0 278.79 155.21
  L 281.03 144.76
  A 1.28 1.28 0.0 0 0 278.67 143.85
  L 274.30 151.42
  A 2.13 2.11 14.9 0 1 272.46 152.48
  L 256.52 152.48
  A 0.60 0.60 0.0 0 1 255.93 151.75
  L 259.45 135.33
  A 0.73 0.72 5.9 0 1 260.16 134.76
  L 268.31 134.76
  A 1.12 1.12 0.0 0 1 269.40 135.64
  L 270.44 140.32
  A 1.37 1.37 0.0 0 0 273.10 140.37
  C 273.82 137.62 274.77 132.83 276.29 125.87
  A 1.28 1.28 0.0 0 0 273.93 124.95
  L 271.16 129.75
  A 2.36 2.35 -75.0 0 1 269.12 130.93
  L 261.16 130.93
  A 0.53 0.52 -83.8 0 1 260.65 130.29
  Z
  M 393.74 133.01
  Q 392.76 137.39 390.54 147.80
  C 389.45 152.89 388.70 152.39 384.28 153.95
  A 1.20 1.20 0.0 0 0 384.68 156.29
  L 403.18 156.29
  A 1.08 1.07 -0.0 0 0 404.26 155.22
  L 404.26 154.79
  A 1.20 1.19 6.8 0 0 403.34 153.63
  L 400.56 152.96
  A 1.84 1.84 0.0 0 1 399.19 150.81
  Q 399.24 150.55 402.78 134.76
  Q 403.77 130.38 405.99 119.97
  C 407.08 114.88 407.83 115.38 412.25 113.82
  A 1.20 1.20 0.0 0 0 411.85 111.48
  L 393.35 111.48
  A 1.08 1.07 -0.0 0 0 392.27 112.55
  L 392.27 112.98
  A 1.20 1.19 6.8 0 0 393.19 114.14
  L 395.97 114.81
  A 1.84 1.84 0.0 0 1 397.33 116.96
  Q 397.29 117.22 393.74 133.01
  Z
  M 423.68 122.30
  A 0.26 0.26 0.0 0 1 424.17 122.25
  L 439.77 155.16
  A 2.78 2.77 77.4 0 0 442.26 156.75
  Q 445.37 156.77 445.80 154.73
  C 446.29 152.39 447.83 148.56 448.49 145.59
  Q 451.08 133.93 454.64 117.66
  A 3.09 3.05 -6.8 0 1 456.32 115.55
  L 460.22 113.71
  A 1.17 1.17 0.0 0 0 459.71 111.48
  L 445.59 111.48
  A 0.88 0.88 0.0 0 0 444.72 112.23
  C 444.40 114.54 447.33 114.52 448.95 115.18
  A 1.67 1.67 0.0 0 1 449.95 117.07
  L 444.52 142.36
  A 0.38 0.38 0.0 0 1 443.80 142.44
  L 429.53 112.32
  A 1.48 1.48 0.0 0 0 428.19 111.47
  L 416.06 111.47
  A 1.16 1.16 0.0 0 0 414.90 112.58
  Q 414.86 113.35 415.05 113.69
  Q 415.27 114.11 416.04 114.26
  Q 417.63 114.57 419.21 115.15
  A 1.58 1.58 0.0 0 1 420.22 116.97
  Q 420.10 117.51 413.16 148.68
  Q 412.60 151.19 411.92 151.87
  A 3.23 2.90 -77.8 0 1 411.12 152.45
  Q 409.69 153.18 407.97 153.45
  A 1.73 1.73 0.0 0 0 406.54 154.80
  L 406.45 155.23
  A 0.87 0.87 0.0 0 0 407.30 156.29
  L 421.31 156.29
  A 1.36 1.36 0.0 0 0 421.74 153.64
  L 418.54 152.58
  A 1.49 1.49 0.0 0 1 417.55 150.85
  L 423.68 122.30
  Z
  M 506.47 111.47
  L 492.70 111.47
  A 1.37 1.37 0.0 0 0 492.27 114.14
  L 495.34 115.16
  A 1.69 1.68 15.5 0 1 496.46 117.13
  Q 491.07 141.15 490.93 141.70
  C 489.30 147.95 485.23 152.69 478.29 152.39
  C 472.87 152.16 469.73 148.79 470.70 143.46
  Q 472.19 135.34 476.43 116.97
  A 2.56 2.56 0.0 0 1 478.03 115.15
  L 481.96 113.73
  A 1.16 1.16 0.0 0 0 481.56 111.48
  L 463.21 111.48
  A 1.36 1.35 51.0 0 0 462.93 114.16
  L 465.67 114.75
  A 1.69 1.68 11.8 0 1 466.97 116.73
  Q 466.00 121.69 461.40 142.40
  C 458.53 155.31 472.13 158.99 481.73 156.42
  Q 492.61 153.51 495.49 142.19
  Q 497.87 132.85 501.03 117.45
  A 2.97 2.95 86.1 0 1 502.92 115.27
  L 506.89 113.82
  A 1.21 1.21 0.0 0 0 506.47 111.47
  Z
  M 123.73 146.98
  A 0.67 0.67 0.0 0 0 124.37 146.28
  L 123.68 128.07
  A 0.67 0.67 0.0 0 0 122.98 127.43
  L 119.05 127.58
  A 0.67 0.67 0.0 0 0 118.40 128.22
  L 117.66 146.49
  A 0.67 0.67 0.0 0 0 118.35 147.18
  L 123.73 146.98
  Z
  M 124.67 176.55
  A 0.84 0.84 0.0 0 0 125.51 175.68
  L 124.66 153.65
  A 0.84 0.84 0.0 0 0 123.82 152.84
  L 118.18 152.84
  A 0.84 0.84 0.0 0 0 117.34 153.65
  L 116.44 175.68
  A 0.84 0.84 0.0 0 0 117.28 176.55
  L 124.67 176.55
  Z
  M 247.66 195.90
  Q 234.31 195.66 228.26 195.95
  Q 227.32 195.99 227.00 196.80
  A 1.14 1.07 18.5 0 0 227.79 198.26
  Q 231.18 199.20 231.77 199.46
  A 1.36 1.36 0.0 0 1 232.56 200.99
  L 230.73 209.55
  A 3.27 3.27 0.0 0 1 228.82 211.88
  C 220.18 215.54 215.01 209.29 214.16 201.29
  Q 213.12 191.59 217.45 183.04
  C 222.39 173.31 230.54 173.21 239.72 177.00
  A 1.48 1.48 0.0 0 1 240.61 178.05
  L 241.69 182.94
  A 1.48 1.48 0.0 0 0 244.58 182.93
  L 246.60 173.52
  A 0.78 0.78 0.0 0 0 246.04 172.61
  C 237.17 170.30 227.03 168.97 219.03 172.87
  Q 208.35 178.08 204.91 190.46
  C 203.21 196.58 203.18 204.94 207.17 210.25
  C 214.55 220.07 227.76 217.25 238.34 214.09
  A 1.30 1.29 -2.4 0 0 239.24 213.12
  L 241.70 201.64
  A 3.05 3.03 86.3 0 1 243.63 199.43
  L 247.98 197.84
  A 1.00 1.00 0.0 0 0 247.66 195.90
  Z
  M 324.57 172.68
  Q 318.97 171.15 314.48 170.62
  C 306.30 169.66 295.41 172.33 293.12 181.09
  C 290.17 192.39 300.02 195.19 307.83 199.08
  C 312.28 201.29 314.40 205.82 310.58 209.85
  C 305.96 214.73 298.19 212.85 293.20 209.51
  C 291.31 208.24 291.08 204.87 290.52 202.36
  A 1.73 1.65 -19.2 0 0 288.12 201.27
  Q 287.88 201.38 287.77 201.84
  Q 287.35 203.69 285.84 213.57
  A 0.71 0.70 -77.0 0 0 286.32 214.35
  C 295.05 217.14 304.50 218.42 313.31 214.61
  Q 324.12 209.94 321.32 198.71
  C 320.04 193.55 312.02 190.52 306.38 187.94
  C 300.95 185.46 300.34 179.96 304.82 176.18
  C 308.15 173.38 313.60 174.75 317.16 176.69
  A 3.85 3.84 9.3 0 1 319.09 179.36
  Q 319.64 182.40 320.10 183.67
  Q 320.62 185.16 322.11 184.67
  A 0.87 0.85 87.7 0 0 322.68 184.04
  L 324.97 173.34
  A 0.56 0.55 14.0 0 0 324.57 172.68
  Z
  M 265.00 196.62
  Q 273.61 200.38 281.27 195.58
  C 290.42 189.84 292.23 174.43 279.17 172.00
  Q 276.35 171.47 275.25 171.45
  Q 266.29 171.31 255.20 171.42
  A 1.25 1.19 -5.8 0 0 253.97 172.86
  Q 254.11 173.51 255.16 173.84
  Q 256.87 174.37 257.91 174.69
  A 1.75 1.74 -75.4 0 1 259.10 176.72
  L 251.93 210.12
  A 3.42 3.41 86.0 0 1 249.79 212.59
  C 248.15 213.19 244.96 213.17 245.41 215.61
  A 0.69 0.68 84.3 0 0 246.08 216.17
  Q 255.38 216.17 265.26 216.18
  Q 266.52 216.18 266.80 214.77
  A 0.83 0.82 14.8 0 0 266.25 213.83
  L 261.57 212.28
  A 0.90 0.89 -74.9 0 1 260.98 211.24
  L 264.01 197.13
  A 0.72 0.71 -72.2 0 1 265.00 196.62
  Z"
/>
<g>
<path fill="#221e1f" d="
  M 117.54 44.88
  A 0.18 0.17 12.7 0 1 117.74 44.76
  L 117.77 44.77
  A 0.24 0.24 0.0 0 1 117.91 45.04
  L 89.09 179.26
  A 0.64 0.64 0.0 0 0 89.37 179.93
  C 109.31 192.68 134.61 192.40 154.20 178.76
  A 0.78 0.78 0.0 0 0 154.51 177.96
  L 125.12 45.19
  A 0.26 0.25 76.8 0 1 125.30 44.89
  L 125.31 44.88
  A 0.24 0.23 74.5 0 1 125.58 45.04
  L 131.04 60.06
  A 1.38 1.38 0.0 0 0 132.06 60.93
  Q 137.12 61.99 140.27 62.79
  C 155.27 66.59 169.02 76.47 177.98 88.32
  C 192.98 108.18 196.57 133.43 188.08 157.09
  Q 184.63 166.70 180.23 174.50
  C 163.47 204.18 145.60 228.18 121.42 249.48
  A 0.91 0.90 -44.2 0 1 120.22 249.47
  C 95.77 227.47 74.65 202.80 60.03 173.75
  C 51.45 156.70 46.27 135.57 50.77 116.66
  Q 55.90 95.13 70.13 81.09
  Q 87.34 64.12 111.41 60.71
  A 1.50 1.50 0.0 0 0 112.63 59.69
  L 117.54 44.88
  Z
  M 65.46 112.69
  C 59.09 132.10 63.22 152.89 76.23 168.39
  Q 76.51 168.72 76.88 168.49
  Q 77.03 168.40 77.12 168.08
  Q 78.18 164.60 92.32 121.51
  Q 106.46 78.42 107.68 74.99
  Q 107.79 74.68 107.73 74.52
  Q 107.56 74.11 107.14 74.21
  C 87.48 78.99 71.83 93.29 65.46 112.69
  Z
  M 152.82 119.07
  Q 155.05 125.13 168.99 163.01
  A 0.26 0.26 0.0 0 0 169.46 163.07
  C 179.73 147.47 182.19 128.43 175.64 110.66
  C 169.09 92.89 154.87 80.00 136.93 74.80
  A 0.26 0.26 0.0 0 0 136.61 75.14
  Q 150.58 113.01 152.82 119.07
  Z"
/>
<path fill="#ed1d23" d="
  M 120.50 82.66
  A 0.21 0.21 0.0 0 1 120.29 82.45
  L 120.29 82.24
  A 17.66 0.63 -89.3 0 1 121.14 64.59
  L 121.14 64.59
  A 17.66 0.63 -89.3 0 1 121.55 82.26
  L 121.55 82.47
  A 0.21 0.21 0.0 0 1 121.34 82.67
  L 120.50 82.66
  Z"
/>
<rect fill="#ed1d23" x="-1.34" y="-7.41" transform="translate(121.01,95.15) rotate(-0.3)" width="2.68" height="14.82" rx="0.57"/>
<path fill="#ed1d23" d="
  M 122.59 121.73
  L 119.36 121.60
  A 0.70 0.70 0.0 0 1 118.69 120.87
  L 119.18 108.93
  A 0.70 0.70 0.0 0 1 119.91 108.26
  L 122.19 108.35
  A 0.70 0.70 0.0 0 1 122.86 109.03
  L 123.32 121.00
  A 0.70 0.70 0.0 0 1 122.59 121.73
  Z"
/>
<path fill="#ed1d23" d="
  M 540.34 112.83
  A 0.56 0.55 14.0 0 1 540.74 113.49
  L 538.45 124.19
  A 0.87 0.85 87.7 0 1 537.88 124.82
  Q 536.39 125.31 535.87 123.82
  Q 535.41 122.55 534.86 119.51
  A 3.85 3.84 9.2 0 0 532.93 116.85
  C 529.37 114.91 523.92 113.54 520.59 116.34
  C 516.11 120.12 516.72 125.62 522.15 128.10
  C 527.79 130.68 535.81 133.71 537.09 138.87
  Q 539.90 150.09 529.09 154.77
  C 520.28 158.58 510.83 157.30 502.10 154.52
  A 0.71 0.70 -77.1 0 1 501.62 153.74
  Q 503.12 143.86 503.54 142.01
  Q 503.65 141.55 503.89 141.44
  A 1.73 1.65 -19.2 0 1 506.29 142.53
  C 506.86 145.04 507.09 148.41 508.98 149.68
  C 513.97 153.01 521.74 154.89 526.36 150.01
  C 530.18 145.98 528.06 141.45 523.60 139.24
  C 515.79 135.35 505.94 132.56 508.89 121.25
  C 511.17 112.49 522.06 109.82 530.25 110.78
  Q 534.74 111.30 540.34 112.83
  Z"
/>
<path fill="#ed1d23" d="
  M 342.58 120.31
  A 0.17 0.16 24.8 0 0 342.32 120.40
  L 335.77 150.91
  A 1.63 1.62 -77.9 0 0 337.01 152.84
  L 339.83 153.45
  A 1.42 1.42 0.0 0 1 339.55 156.25
  Q 324.47 156.46 315.86 156.18
  C 313.81 156.12 312.31 155.47 311.32 153.51
  Q 308.77 148.42 303.44 138.14
  Q 302.74 136.79 300.09 136.64
  A 0.66 0.66 0.0 0 0 299.41 137.16
  L 296.41 151.12
  A 1.21 1.21 0.0 0 0 297.05 152.45
  Q 299.03 153.44 300.67 153.59
  A 1.14 1.13 -87.2 0 1 301.69 154.72
  L 301.69 155.25
  A 1.03 1.03 0.0 0 1 300.66 156.28
  L 281.54 156.28
  A 0.91 0.91 0.0 0 1 280.68 155.08
  L 280.78 154.77
  A 1.39 1.38 -1.0 0 1 281.63 153.90
  L 285.43 152.52
  A 2.89 2.89 0.0 0 0 287.27 150.40
  L 294.47 116.88
  A 1.83 1.83 0.0 0 0 293.06 114.70
  L 290.32 114.11
  A 1.30 1.30 0.0 0 1 290.58 111.53
  Q 304.20 111.38 310.99 111.59
  C 316.78 111.76 323.31 113.52 324.24 120.12
  C 325.29 127.51 319.76 133.36 312.82 134.68
  A 0.77 0.77 0.0 0 0 312.29 135.81
  Q 316.54 143.28 319.43 149.06
  Q 322.53 155.25 329.37 152.62
  A 3.51 3.50 85.6 0 0 331.53 150.09
  L 338.68 116.81
  A 1.77 1.77 0.0 0 0 337.32 114.71
  L 334.60 114.13
  A 1.35 1.34 -38.9 0 1 334.89 111.47
  L 350.14 111.47
  A 0.49 0.48 85.9 0 1 350.62 111.89
  L 355.09 142.18
  A 0.32 0.32 0.0 0 0 355.69 142.29
  L 372.99 112.32
  A 1.71 1.69 15.0 0 1 374.46 111.48
  L 388.64 111.48
  A 1.17 1.16 35.0 0 1 389.04 113.74
  L 385.20 115.14
  A 2.98 2.96 86.2 0 0 383.32 117.30
  L 376.05 151.16
  A 1.46 1.46 0.0 0 0 377.18 152.90
  L 380.03 153.52
  A 1.03 1.02 -84.2 0 1 380.84 154.53
  L 380.84 155.34
  A 0.95 0.95 0.0 0 1 379.89 156.29
  L 360.91 156.29
  A 0.73 0.73 0.0 0 1 360.20 155.41
  L 360.31 154.89
  A 1.83 1.83 0.0 0 1 362.00 153.44
  Q 364.73 153.28 366.17 151.56
  A 1.84 1.80 72.2 0 0 366.56 150.78
  L 373.28 120.89
  A 0.20 0.19 -23.5 0 0 372.92 120.75
  Q 363.87 136.07 356.23 148.72
  Q 354.30 151.90 352.43 154.60
  C 351.45 156.03 350.14 156.82 348.58 156.27
  A 0.96 0.95 5.3 0 1 347.95 155.52
  Q 347.81 154.63 342.80 120.74
  Q 342.76 120.45 342.58 120.31
  Z
  M 300.99 133.17
  C 305.86 133.81 310.79 132.27 313.01 127.81
  C 314.59 124.63 314.97 118.84 311.46 116.76
  Q 308.68 115.11 304.82 115.38
  A 0.81 0.79 -85.5 0 0 304.10 116.01
  L 300.55 132.55
  A 0.52 0.51 9.7 0 0 300.99 133.17
  Z"
/>
<path fill="#ed1d23" d="
  M 221.82 115.35
  L 214.24 115.35
  A 2.59 2.58 16.1 0 0 212.05 116.56
  Q 210.76 118.62 208.40 122.64
  Q 207.93 123.45 206.79 123.72
  A 1.00 1.00 0.0 0 1 205.58 122.54
  L 207.83 112.10
  A 0.78 0.76 -83.9 0 1 208.58 111.48
  L 246.74 111.48
  A 0.87 0.86 6.1 0 1 247.59 112.53
  Q 245.74 120.82 245.23 122.78
  A 1.40 1.32 -75.6 0 1 243.61 123.80
  Q 242.80 123.59 242.56 122.69
  Q 242.17 121.17 241.54 116.27
  A 1.06 1.06 0.0 0 0 240.49 115.35
  L 232.82 115.35
  A 1.14 1.14 0.0 0 0 231.70 116.26
  L 224.21 151.12
  A 1.33 1.33 0.0 0 0 224.97 152.61
  Q 226.73 153.40 228.73 153.54
  A 1.14 1.14 0.0 0 1 229.78 154.68
  L 229.78 155.25
  A 1.03 1.03 0.0 0 1 228.75 156.28
  L 208.42 156.28
  A 0.69 0.69 0.0 0 1 207.73 155.58
  Q 207.74 154.98 208.27 154.19
  A 1.15 1.13 -78.8 0 1 208.94 153.73
  L 212.63 152.92
  A 3.06 3.05 -0.3 0 0 214.95 150.58
  L 222.37 116.02
  A 0.56 0.56 0.0 0 0 221.82 115.35
  Z"
/>
<path fill="#ed1d23" d="
  M 260.65 130.29
  A 0.53 0.52 -83.8 0 0 261.16 130.93
  L 269.12 130.93
  A 2.36 2.35 -75.0 0 0 271.16 129.75
  L 273.93 124.95
  A 1.28 1.28 0.0 0 1 276.29 125.87
  C 274.77 132.83 273.82 137.62 273.10 140.37
  A 1.37 1.37 0.0 0 1 270.44 140.32
  L 269.40 135.64
  A 1.12 1.12 0.0 0 0 268.31 134.76
  L 260.16 134.76
  A 0.73 0.72 5.9 0 0 259.45 135.33
  L 255.93 151.75
  A 0.60 0.60 0.0 0 0 256.52 152.48
  L 272.46 152.48
  A 2.13 2.11 14.9 0 0 274.30 151.42
  L 278.67 143.85
  A 1.28 1.28 0.0 0 1 281.03 144.76
  L 278.79 155.21
  A 1.35 1.35 0.0 0 1 277.47 156.28
  L 241.20 156.28
  A 0.88 0.87 -90.0 0 1 240.33 155.40
  L 240.33 154.95
  A 1.33 1.32 84.8 0 1 241.41 153.64
  C 245.31 152.91 246.27 152.56 247.13 148.69
  Q 253.62 119.71 254.19 116.96
  A 1.81 1.81 0.0 0 0 252.83 114.83
  Q 250.31 114.25 249.96 114.12
  A 1.44 1.25 32.1 0 1 249.29 111.93
  Q 249.81 111.45 251.25 111.46
  Q 269.68 111.56 284.46 111.43
  A 0.60 0.59 -84.1 0 1 285.04 112.15
  L 282.86 122.31
  A 1.56 1.56 0.0 0 1 279.79 122.21
  L 278.97 116.62
  A 1.50 1.49 -4.2 0 0 277.49 115.35
  L 264.57 115.35
  A 0.90 0.89 -83.5 0 0 263.70 116.05
  L 260.65 130.29
  Z"
/>
<path fill="#ed1d23" d="
  M 402.78 134.76
  Q 399.24 150.55 399.19 150.81
  A 1.84 1.84 0.0 0 0 400.56 152.96
  L 403.34 153.63
  A 1.20 1.19 6.8 0 1 404.26 154.79
  L 404.26 155.22
  A 1.08 1.07 -0.0 0 1 403.18 156.29
  L 384.68 156.29
  A 1.20 1.20 0.0 0 1 384.28 153.95
  C 388.70 152.39 389.45 152.89 390.54 147.80
  Q 392.76 137.39 393.74 133.01
  Q 397.29 117.22 397.33 116.96
  A 1.84 1.84 0.0 0 0 395.97 114.81
  L 393.19 114.14
  A 1.20 1.19 6.8 0 1 392.27 112.98
  L 392.27 112.55
  A 1.08 1.07 -0.0 0 1 393.35 111.48
  L 411.85 111.48
  A 1.20 1.20 0.0 0 1 412.25 113.82
  C 407.83 115.38 407.08 114.88 405.99 119.97
  Q 403.77 130.38 402.78 134.76
  Z"
/>
<path fill="#ed1d23" d="
  M 423.68 122.30
  L 417.55 150.85
  A 1.49 1.49 0.0 0 0 418.54 152.58
  L 421.74 153.64
  A 1.36 1.36 0.0 0 1 421.31 156.29
  L 407.30 156.29
  A 0.87 0.87 0.0 0 1 406.45 155.23
  L 406.54 154.80
  A 1.73 1.73 0.0 0 1 407.97 153.45
  Q 409.69 153.18 411.12 152.45
  A 3.23 2.90 -77.8 0 0 411.92 151.87
  Q 412.60 151.19 413.16 148.68
  Q 420.10 117.51 420.22 116.97
  A 1.58 1.58 0.0 0 0 419.21 115.15
  Q 417.63 114.57 416.04 114.26
  Q 415.27 114.11 415.05 113.69
  Q 414.86 113.35 414.90 112.58
  A 1.16 1.16 0.0 0 1 416.06 111.47
  L 428.19 111.47
  A 1.48 1.48 0.0 0 1 429.53 112.32
  L 443.80 142.44
  A 0.38 0.38 0.0 0 0 444.52 142.36
  L 449.95 117.07
  A 1.67 1.67 0.0 0 0 448.95 115.18
  C 447.33 114.52 444.40 114.54 444.72 112.23
  A 0.88 0.88 0.0 0 1 445.59 111.48
  L 459.71 111.48
  A 1.17 1.17 0.0 0 1 460.22 113.71
  L 456.32 115.55
  A 3.09 3.05 -6.8 0 0 454.64 117.66
  Q 451.08 133.93 448.49 145.59
  C 447.83 148.56 446.29 152.39 445.80 154.73
  Q 445.37 156.77 442.26 156.75
  A 2.78 2.77 77.4 0 1 439.77 155.16
  L 424.17 122.25
  A 0.26 0.26 0.0 0 0 423.68 122.30
  Z"
/>
<path fill="#ed1d23" d="
  M 506.47 111.47
  A 1.21 1.21 0.0 0 1 506.89 113.82
  L 502.92 115.27
  A 2.97 2.95 86.1 0 0 501.03 117.45
  Q 497.87 132.85 495.49 142.19
  Q 492.61 153.51 481.73 156.42
  C 472.13 158.99 458.53 155.31 461.40 142.40
  Q 466.00 121.69 466.97 116.73
  A 1.69 1.68 11.8 0 0 465.67 114.75
  L 462.93 114.16
  A 1.36 1.35 51.0 0 1 463.21 111.48
  L 481.56 111.48
  A 1.16 1.16 0.0 0 1 481.96 113.73
  L 478.03 115.15
  A 2.56 2.56 0.0 0 0 476.43 116.97
  Q 472.19 135.34 470.70 143.46
  C 469.73 148.79 472.87 152.16 478.29 152.39
  C 485.23 152.69 489.30 147.95 490.93 141.70
  Q 491.07 141.15 496.46 117.13
  A 1.69 1.68 15.5 0 0 495.34 115.16
  L 492.27 114.14
  A 1.37 1.37 0.0 0 1 492.70 111.47
  L 506.47 111.47
  Z"
/>
<path fill="#ed1d23" d="
  M 123.73 146.98
  L 118.35 147.18
  A 0.67 0.67 0.0 0 1 117.66 146.49
  L 118.40 128.22
  A 0.67 0.67 0.0 0 1 119.05 127.58
  L 122.98 127.43
  A 0.67 0.67 0.0 0 1 123.68 128.07
  L 124.37 146.28
  A 0.67 0.67 0.0 0 1 123.73 146.98
  Z"
/>
<path fill="#ed1d23" d="
  M 124.67 176.55
  L 117.28 176.55
  A 0.84 0.84 0.0 0 1 116.44 175.68
  L 117.34 153.65
  A 0.84 0.84 0.0 0 1 118.18 152.84
  L 123.82 152.84
  A 0.84 0.84 0.0 0 1 124.66 153.65
  L 125.51 175.68
  A 0.84 0.84 0.0 0 1 124.67 176.55
  Z"
/>
<path fill="#221e1f" d="
  M 247.66 195.90
  A 1.00 1.00 0.0 0 1 247.98 197.84
  L 243.63 199.43
  A 3.05 3.03 86.3 0 0 241.70 201.64
  L 239.24 213.12
  A 1.30 1.29 -2.4 0 1 238.34 214.09
  C 227.76 217.25 214.55 220.07 207.17 210.25
  C 203.18 204.94 203.21 196.58 204.91 190.46
  Q 208.35 178.08 219.03 172.87
  C 227.03 168.97 237.17 170.30 246.04 172.61
  A 0.78 0.78 0.0 0 1 246.60 173.52
  L 244.58 182.93
  A 1.48 1.48 0.0 0 1 241.69 182.94
  L 240.61 178.05
  A 1.48 1.48 0.0 0 0 239.72 177.00
  C 230.54 173.21 222.39 173.31 217.45 183.04
  Q 213.12 191.59 214.16 201.29
  C 215.01 209.29 220.18 215.54 228.82 211.88
  A 3.27 3.27 0.0 0 0 230.73 209.55
  L 232.56 200.99
  A 1.36 1.36 0.0 0 0 231.77 199.46
  Q 231.18 199.20 227.79 198.26
  A 1.14 1.07 18.5 0 1 227.00 196.80
  Q 227.32 195.99 228.26 195.95
  Q 234.31 195.66 247.66 195.90
  Z"
/>
<path fill="#221e1f" d="
  M 324.57 172.68
  A 0.56 0.55 14.0 0 1 324.97 173.34
  L 322.68 184.04
  A 0.87 0.85 87.7 0 1 322.11 184.67
  Q 320.62 185.16 320.10 183.67
  Q 319.64 182.40 319.09 179.36
  A 3.85 3.84 9.3 0 0 317.16 176.69
  C 313.60 174.75 308.15 173.38 304.82 176.18
  C 300.34 179.96 300.95 185.46 306.38 187.94
  C 312.02 190.52 320.04 193.55 321.32 198.71
  Q 324.12 209.94 313.31 214.61
  C 304.50 218.42 295.05 217.14 286.32 214.35
  A 0.71 0.70 -77.0 0 1 285.84 213.57
  Q 287.35 203.69 287.77 201.84
  Q 287.88 201.38 288.12 201.27
  A 1.73 1.65 -19.2 0 1 290.52 202.36
  C 291.08 204.87 291.31 208.24 293.20 209.51
  C 298.19 212.85 305.96 214.73 310.58 209.85
  C 314.40 205.82 312.28 201.29 307.83 199.08
  C 300.02 195.19 290.17 192.39 293.12 181.09
  C 295.41 172.33 306.30 169.66 314.48 170.62
  Q 318.97 171.15 324.57 172.68
  Z"
/>
<path fill="#221e1f" d="
  M 264.01 197.13
  L 260.98 211.24
  A 0.90 0.89 -74.9 0 0 261.57 212.28
  L 266.25 213.83
  A 0.83 0.82 14.8 0 1 266.80 214.77
  Q 266.52 216.18 265.26 216.18
  Q 255.38 216.17 246.08 216.17
  A 0.69 0.68 84.3 0 1 245.41 215.61
  C 244.96 213.17 248.15 213.19 249.79 212.59
  A 3.42 3.41 86.0 0 0 251.93 210.12
  L 259.10 176.72
  A 1.75 1.74 -75.4 0 0 257.91 174.69
  Q 256.87 174.37 255.16 173.84
  Q 254.11 173.51 253.97 172.86
  A 1.25 1.19 -5.8 0 1 255.20 171.42
  Q 266.29 171.31 275.25 171.45
  Q 276.35 171.47 279.17 172.00
  C 292.23 174.43 290.42 189.84 281.27 195.58
  Q 273.61 200.38 265.00 196.62
  A 0.72 0.71 -72.2 0 0 264.01 197.13
  Z
  M 269.16 174.69
  L 264.92 193.07
  A 0.29 0.29 0.0 0 0 265.14 193.42
  L 267.46 193.95
  A 8.72 8.35 -77.0 0 0 277.55 187.33
  L 278.00 185.39
  A 8.72 8.35 -77.0 0 0 271.83 175.01
  L 269.51 174.47
  A 0.29 0.29 0.0 0 0 269.16 174.69
  Z"
/>
</g>
<g>
<path fill="#ffffff" d="
  M 92.32 121.51
  Q 78.18 164.60 77.12 168.08
  Q 77.03 168.40 76.88 168.49
  Q 76.51 168.72 76.23 168.39
  C 63.22 152.89 59.09 132.10 65.46 112.69
  C 71.83 93.29 87.48 78.99 107.14 74.21
  Q 107.56 74.11 107.73 74.52
  Q 107.79 74.68 107.68 74.99
  Q 106.46 78.42 92.32 121.51
  Z"
/>
<path fill="#ffffff" d="
  M 175.64 110.66
  C 182.19 128.43 179.73 147.47 169.46 163.07
  A 0.26 0.26 0.0 0 1 168.99 163.01
  Q 155.05 125.13 152.82 119.07
  Q 150.58 113.01 136.61 75.14
  A 0.26 0.26 0.0 0 1 136.93 74.80
  C 154.87 80.00 169.09 92.89 175.64 110.66
  Z"
/>
<path fill="#ffffff" d="
  M 300.99 133.17
  A 0.52 0.51 9.7 0 1 300.55 132.55
  L 304.10 116.01
  A 0.81 0.79 -85.5 0 1 304.82 115.38
  Q 308.68 115.11 311.46 116.76
  C 314.97 118.84 314.59 124.63 313.01 127.81
  C 310.79 132.27 305.86 133.81 300.99 133.17
  Z"
/>
<path fill="#ffffff" d="
  M 269.16 174.69
  A 0.29 0.29 0.0 0 1 269.51 174.47
  L 271.83 175.01
  A 8.72 8.35 -77.0 0 1 278.00 185.39
  L 277.55 187.33
  A 8.72 8.35 -77.0 0 1 267.46 193.95
  L 265.14 193.42
  A 0.29 0.29 0.0 0 1 264.92 193.07
  L 269.16 174.69
  Z"
/>
</g>
</svg>
